<?xml version="1.0" standalone="no"?>
<!DOCTYPE svg PUBLIC "-//W3C//DTD SVG 20010904//EN"
 "http://www.w3.org/TR/2001/REC-SVG-20010904/DTD/svg10.dtd">
<svg version="1.0" xmlns="http://www.w3.org/2000/svg"
 width="512.000000pt" height="512.000000pt" viewBox="0 0 512.000000 512.000000"
 preserveAspectRatio="xMidYMid meet">

<g transform="translate(0.000000,512.000000) scale(0.100000,-0.100000)"
fill="#000000" stroke="none">
<path d="M1115 5107 c-117 -45 -175 -132 -175 -262 l0 -62 -77 -5 c-112 -7
-200 -59 -235 -140 l-13 -28 -191 0 c-221 0 -272 -10 -335 -67 -22 -20 -50
-55 -62 -77 l-22 -41 0 -1950 0 -1950 22 -40 c49 -91 124 -136 234 -143 l77
-4 4 -77 c7 -112 54 -187 148 -237 34 -18 109 -19 2240 -19 l2205 0 40 22 c47
25 95 74 121 123 18 34 19 94 22 1535 2 1128 0 1511 -9 1543 -17 60 -60 116
-116 149 l-48 28 -595 5 -595 5 -5 340 c-4 266 -8 345 -19 365 -55 97 -124
139 -242 147 l-79 6 0 69 c0 110 -42 184 -132 234 l-53 29 -212 3 -212 4 -26
44 c-48 81 -132 124 -247 124 l-58 0 0 73 c0 89 -29 159 -86 205 -76 62 -71
62 -683 61 -400 0 -565 -4 -586 -12z m1162 -180 c15 -14 19 -40 23 -143 5
-123 6 -126 33 -150 26 -22 37 -24 133 -24 171 0 184 -16 184 -216 l0 -124
-940 0 -940 0 0 144 0 144 31 26 c29 25 37 26 142 26 157 1 167 11 167 175 0
105 1 107 29 136 l30 30 545 -3 c508 -3 547 -4 563 -21z m-1675 -606 c3 -132
12 -154 78 -198 l33 -23 989 0 c1084 0 1018 -4 1071 60 35 42 47 89 47 193 l0
87 179 0 c178 0 180 0 210 -26 l31 -26 0 -489 0 -489 -243 0 c-241 0 -243 0
-295 -26 -29 -14 -65 -42 -82 -62 -63 -77 -60 7 -60 -1469 l0 -1343 -1171 2
-1171 3 -24 28 -24 28 0 1902 c0 1731 1 1905 16 1925 9 13 26 27 38 32 11 5
100 9 198 9 l176 1 4 -119z m2953 -251 l25 -23 0 -319 0 -319 -82 3 -83 3 -3
330 c-1 181 0 336 3 344 9 23 110 9 140 -19z m1350 -836 c47 -18 45 34 45
-1534 l0 -1472 -29 -29 -29 -29 -1052 0 -1052 0 -29 29 -29 29 0 1472 c0 1279
2 1475 15 1500 8 15 20 30 27 33 19 8 2113 8 2133 1z m-2345 -2948 c0 -29 3
-68 6 -85 l6 -31 -1002 0 -1002 0 -29 29 c-25 26 -29 37 -29 85 l0 56 1025 0
1025 0 0 -54z"/>
<path d="M1480 4670 c-28 -28 -36 -69 -19 -99 26 -46 50 -51 251 -51 186 0
187 0 217 26 40 33 43 83 6 119 -24 25 -25 25 -230 25 -191 0 -206 -1 -225
-20z"/>
<path d="M1315 3869 c-44 -12 -1015 -800 -1037 -841 -24 -44 -23 -124 1 -163
43 -70 155 -188 192 -204 l39 -16 0 -396 c0 -461 1 -471 80 -549 81 -82 62
-80 775 -80 713 0 696 -2 776 79 77 76 79 89 79 551 l0 396 35 13 c21 7 59 40
97 82 97 108 118 144 118 201 0 78 -21 109 -141 205 l-109 88 0 225 c0 124 -5
241 -10 260 -11 41 -61 94 -103 109 -16 6 -81 11 -145 11 -92 0 -126 -4 -158
-19 -50 -23 -84 -68 -91 -121 -3 -22 -8 -40 -12 -40 -3 0 -62 45 -131 100
-143 115 -180 131 -255 109z m525 -544 c252 -203 459 -372 459 -375 2 -11
-101 -131 -109 -128 -5 2 -181 140 -392 307 -211 168 -396 309 -411 315 -22 9
-34 7 -57 -6 -15 -9 -200 -152 -411 -319 l-382 -303 -34 40 c-19 21 -43 51
-54 66 l-20 27 173 140 c95 77 304 245 463 375 160 129 296 234 303 233 7 -1
219 -168 472 -372z m210 199 c0 -113 -3 -144 -12 -138 -7 4 -46 34 -85 66
l-73 59 0 80 0 79 85 0 85 0 0 -146z m-336 -544 l335 -265 -2 -437 -2 -437
-23 -23 c-21 -21 -32 -23 -167 -26 l-144 -3 -3 243 c-3 242 -3 243 -31 300
-28 58 -72 98 -132 124 -54 22 -317 19 -370 -5 -53 -24 -103 -75 -129 -131
-19 -41 -21 -67 -24 -288 l-4 -243 -144 3 c-134 3 -145 5 -166 26 l-23 23 -3
434 -3 435 298 236 c164 130 316 252 338 270 22 18 45 32 52 31 6 -1 162 -121
347 -267z m-203 -706 c24 -26 24 -26 24 -252 l0 -227 -170 0 -170 0 0 227 c0
226 0 226 24 252 24 25 28 26 146 26 118 0 122 -1 146 -26z"/>
<path d="M369 1421 c-38 -38 -38 -74 0 -112 l29 -29 967 0 967 0 29 29 c38 38
38 74 0 112 l-29 29 -967 0 -967 0 -29 -29z"/>
<path d="M369 1081 c-17 -18 -29 -40 -29 -56 0 -16 12 -38 29 -56 l29 -29 500
0 499 0 27 26 c35 36 34 77 -3 115 l-29 29 -497 0 -497 0 -29 -29z"/>
<path d="M2939 3057 c-36 -28 -39 -51 -39 -332 l0 -277 29 -29 29 -29 882 0
882 0 29 29 29 29 0 277 c0 281 -3 304 -39 332 -23 18 -1779 18 -1802 0z
m1671 -327 l0 -170 -770 0 -770 0 0 170 0 170 770 0 770 0 0 -170z"/>
<path d="M3005 2201 c-83 -38 -105 -89 -105 -244 0 -100 3 -119 23 -158 15
-27 39 -53 63 -67 36 -21 49 -22 181 -20 154 3 170 8 217 72 19 24 21 44 24
169 2 132 1 145 -20 181 -14 24 -40 48 -67 63 -39 20 -58 23 -160 23 -91 0
-125 -4 -156 -19z m235 -236 l0 -85 -85 0 -85 0 0 85 0 85 85 0 85 0 0 -85z"/>
<path d="M3685 2201 c-80 -36 -104 -90 -105 -231 0 -111 11 -158 47 -200 44
-53 69 -60 213 -60 144 0 169 7 213 60 36 42 47 89 47 200 -1 200 -53 250
-260 250 -90 0 -124 -4 -155 -19z m243 -238 l3 -83 -91 0 -90 0 0 78 c0 43 3
82 7 86 4 4 43 5 88 4 l80 -3 3 -82z"/>
<path d="M4359 2197 c-27 -15 -52 -38 -66 -63 -20 -35 -23 -53 -23 -175 0
-125 2 -139 23 -169 46 -69 63 -75 220 -78 132 -2 145 -1 181 20 24 14 48 40
63 67 20 39 23 58 23 158 0 214 -48 262 -261 263 -102 0 -121 -3 -160 -23z
m251 -232 l0 -85 -85 0 -85 0 0 85 0 85 85 0 85 0 0 -85z"/>
<path d="M3017 1526 c-91 -33 -117 -87 -117 -246 0 -159 26 -213 117 -246 45
-16 212 -18 265 -4 44 13 93 52 113 91 21 40 21 278 0 318 -20 39 -69 78 -113
91 -53 14 -220 12 -265 -4z m223 -246 l0 -91 -82 3 -83 3 -3 74 c-2 41 -1 80
2 88 4 9 28 13 86 13 l80 0 0 -90z"/>
<path d="M3715 1531 c-45 -11 -82 -39 -107 -80 -21 -33 -23 -48 -23 -171 0
-123 2 -138 23 -172 13 -20 40 -47 60 -60 34 -21 48 -23 173 -23 130 0 137 1
176 27 65 43 78 81 78 233 0 118 -2 133 -23 167 -41 66 -79 82 -211 85 -64 1
-130 -1 -146 -6z m210 -251 l0 -85 -85 0 -85 0 -3 74 c-2 41 -1 80 2 88 4 11
25 13 88 11 l83 -3 0 -85z"/>
<path d="M4387 1525 c-22 -7 -50 -24 -64 -37 -54 -50 -53 -41 -53 -550 0 -471
0 -473 23 -512 14 -25 39 -48 66 -63 39 -20 58 -23 158 -23 155 0 206 22 244
105 17 37 19 75 19 495 0 420 -2 458 -19 495 -37 81 -90 104 -236 104 -59 0
-116 -5 -138 -14z m221 -587 l2 -428 -85 0 -85 0 0 430 0 431 83 -3 82 -3 3
-427z"/>
<path d="M2986 827 c-25 -14 -48 -39 -63 -66 -20 -39 -23 -58 -23 -160 1 -213
49 -261 263 -261 100 0 119 3 158 23 27 15 53 39 67 63 21 36 22 49 20 181 -3
157 -9 174 -78 221 -30 20 -44 22 -169 22 -122 0 -140 -3 -175 -23z m254 -232
l0 -85 -85 0 -85 0 0 85 0 85 85 0 85 0 0 -85z"/>
<path d="M3675 831 c-73 -45 -94 -98 -94 -236 0 -205 50 -254 259 -255 101 0
122 3 160 23 78 40 99 90 100 237 0 101 -12 149 -47 190 -44 53 -69 60 -215
60 -112 0 -138 -3 -163 -19z m253 -233 l-3 -83 -85 0 -85 0 -3 83 -3 82 91 0
91 0 -3 -82z"/>
</g>
</svg>
