<?xml version="1.0" standalone="no"?>
<!DOCTYPE svg PUBLIC "-//W3C//DTD SVG 20010904//EN"
 "http://www.w3.org/TR/2001/REC-SVG-20010904/DTD/svg10.dtd">
<svg version="1.0" xmlns="http://www.w3.org/2000/svg"
 width="512.000000pt" height="512.000000pt" viewBox="0 0 512.000000 512.000000"
 preserveAspectRatio="xMidYMid meet">

<g transform="translate(0.000000,512.000000) scale(0.100000,-0.100000)"
fill="#000000" stroke="none">
<path d="M340 5109 c-75 -15 -163 -64 -219 -124 -214 -226 -126 -582 172 -694
l27 -11 0 -1720 0 -1720 -28 -11 c-156 -59 -257 -181 -284 -342 -45 -273 206
-524 480 -479 159 27 283 130 341 285 l11 27 920 0 c868 0 921 -1 926 -17 51
-154 185 -268 347 -295 223 -37 441 124 479 354 33 201 -95 406 -294 472 -17
5 -18 31 -18 365 0 330 2 364 20 423 40 129 149 238 278 278 59 18 93 20 423
20 334 0 360 -1 365 -17 66 -200 275 -329 475 -294 183 32 321 171 351 355 33
199 -96 404 -294 470 -17 5 -18 58 -18 926 0 868 1 921 18 926 199 66 328 276
293 475 -32 184 -171 321 -357 351 -197 33 -402 -97 -468 -294 -5 -17 -96 -18
-1726 -18 l-1720 0 -11 28 c-79 209 -277 323 -489 281z m181 -226 c136 -69
161 -246 50 -346 -49 -44 -99 -60 -167 -55 -156 13 -244 192 -158 325 64 97
173 127 275 76z m4266 4 c69 -36 112 -101 120 -181 4 -42 0 -60 -24 -106 -67
-131 -226 -161 -334 -63 -77 69 -91 192 -33 276 42 61 122 100 190 94 29 -3
65 -12 81 -20z m-486 -352 c40 -104 130 -194 234 -234 l50 -19 0 -922 0 -922
-50 -19 c-104 -40 -194 -130 -234 -234 l-19 -50 -393 -6 c-430 -6 -422 -5
-557 -71 -46 -23 -92 -57 -148 -113 -86 -85 -128 -151 -165 -255 -22 -62 -23
-81 -29 -459 l-5 -393 -50 -19 c-104 -40 -194 -130 -234 -234 l-19 -50 -922 0
-922 0 -19 50 c-40 104 -130 194 -234 234 l-50 19 -3 1721 c-2 1633 -1 1722
15 1727 136 45 242 151 287 287 5 16 94 17 1727 15 l1721 -3 19 -50z m511
-2331 c62 -42 101 -122 95 -190 -11 -113 -88 -190 -201 -201 -42 -4 -60 0
-106 24 -129 66 -161 223 -67 330 47 53 99 74 174 70 50 -2 71 -9 105 -33z
m-4297 -1583 c49 -22 99 -77 115 -126 19 -59 8 -139 -26 -188 -42 -61 -122
-100 -190 -94 -111 11 -188 86 -201 196 -10 87 52 186 137 220 40 16 122 12
165 -8z m2697 -17 c62 -42 101 -122 95 -190 -11 -113 -88 -190 -201 -201 -42
-4 -60 0 -106 24 -129 66 -161 223 -67 330 47 53 99 74 174 70 50 -2 71 -9
105 -33z"/>
<path d="M1275 3770 l-250 -250 230 -230 230 -230 -230 -230 -230 -230 253
-252 252 -253 230 230 230 230 232 -233 233 -232 252 252 253 253 -232 232
-233 233 232 233 233 232 -118 115 c-64 63 -179 176 -255 250 l-137 134 -230
-229 -230 -230 -228 228 c-125 125 -229 227 -232 227 -3 0 -118 -112 -255
-250z m950 -270 l230 230 105 -105 105 -105 -230 -230 -230 -230 230 -230 230
-230 -105 -105 -105 -105 -230 230 -230 230 -230 -230 -231 -231 -99 101 c-55
55 -102 103 -105 106 -2 2 99 108 225 234 l230 230 -230 230 -230 230 105 105
105 105 230 -230 230 -230 230 230z"/>
</g>
</svg>
