<?xml version="1.0" standalone="no"?>
<!DOCTYPE svg PUBLIC "-//W3C//DTD SVG 20010904//EN"
 "http://www.w3.org/TR/2001/REC-SVG-20010904/DTD/svg10.dtd">
<svg version="1.0" xmlns="http://www.w3.org/2000/svg"
 width="512.000000pt" height="512.000000pt" viewBox="0 0 512.000000 512.000000"
 preserveAspectRatio="xMidYMid meet">

<g transform="translate(0.000000,512.000000) scale(0.100000,-0.100000)"
fill="#000000" stroke="none">
<path d="M425 4855 c-55 -54 -15 -135 67 -135 210 0 418 -177 458 -389 6 -34
10 -415 10 -1052 l0 -998 -394 -275 c-216 -151 -396 -282 -400 -291 -3 -9 -6
-26 -6 -38 0 -25 176 -294 201 -308 26 -13 62 -11 85 6 10 8 22 15 27 15 4 0
7 -266 7 -590 l0 -591 25 -24 24 -25 2191 0 2191 0 24 25 c51 51 15 135 -58
135 -111 0 -239 52 -323 132 -59 56 -93 106 -127 191 l-22 52 -5 1835 -5 1835
-22 65 c-56 162 -178 305 -323 378 -152 76 -29 72 -1913 72 l-1688 0 -24 -25z
m3450 -150 c178 -47 321 -197 355 -374 6 -35 10 -514 10 -1365 l0 -1311 -27
35 c-103 133 -251 250 -392 310 -140 60 -210 73 -381 73 -155 0 -161 -1 -325
-48 -15 -4 -172 100 -635 425 -427 299 -622 430 -640 430 -18 0 -134 -76 -368
-240 -188 -132 -344 -240 -347 -240 -3 0 -5 429 -5 953 0 794 -3 964 -15 1022
-19 91 -83 218 -146 289 l-51 56 1454 0 c1273 0 1461 -2 1513 -15z m-1495
-2380 c289 -202 531 -372 538 -379 10 -9 2 -19 -35 -46 -27 -19 -53 -39 -60
-43 -8 -5 -185 108 -480 305 -392 262 -474 313 -503 313 -30 0 -143 -72 -727
-462 l-691 -462 -36 54 -36 54 743 520 c408 286 747 519 752 517 6 -2 246
-169 535 -371z m-101 -314 l421 -281 -39 -51 c-22 -29 -57 -88 -79 -133 -182
-369 -116 -796 168 -1086 47 -48 101 -99 120 -113 l35 -27 -332 0 -332 0 -3
603 -3 602 -34 63 c-38 70 -69 100 -145 140 -49 26 -56 27 -216 27 -160 0
-167 -1 -216 -27 -76 -40 -107 -70 -145 -140 l-34 -63 -3 -602 -3 -603 -399 0
-400 0 0 593 1 592 597 398 c328 218 602 395 609 393 6 -3 201 -131 432 -285z
m1351 -114 c100 -28 168 -57 242 -106 367 -240 476 -718 248 -1088 -235 -381
-741 -497 -1112 -254 -318 208 -445 591 -316 949 93 257 319 448 598 508 80
17 262 12 340 -9z m-1646 -311 c18 -8 46 -31 62 -52 l29 -37 3 -589 2 -588
-240 0 -240 0 0 574 c0 383 4 584 11 603 14 37 47 73 84 89 42 18 245 19 289
0z m2347 -1114 c12 -20 44 -63 71 -94 l49 -58 -238 0 -238 0 35 27 c69 53 153
139 203 206 l50 68 23 -56 c13 -31 33 -73 45 -93z"/>
<path d="M1385 4455 c-25 -24 -25 -26 -25 -215 0 -189 0 -191 25 -215 l24 -25
1271 0 1271 0 24 25 c25 24 25 26 25 215 0 189 0 191 -25 215 l-24 25 -1271 0
-1271 0 -24 -25z m2455 -215 l0 -80 -1160 0 -1160 0 0 80 0 80 1160 0 1160 0
0 -80z"/>
<path d="M1465 3815 c-16 -15 -25 -36 -25 -55 0 -19 9 -40 25 -55 l24 -25
1191 0 1191 0 24 25 c16 15 25 36 25 55 0 19 -9 40 -25 55 l-24 25 -1191 0
-1191 0 -24 -25z"/>
<path d="M1465 3495 c-16 -15 -25 -36 -25 -55 0 -19 9 -40 25 -55 l24 -25
1191 0 1191 0 24 25 c16 15 25 36 25 55 0 19 -9 40 -25 55 l-24 25 -1191 0
-1191 0 -24 -25z"/>
<path d="M1465 3175 c-16 -15 -25 -36 -25 -55 0 -19 9 -40 25 -55 l24 -25
1191 0 1191 0 24 25 c16 15 25 36 25 55 0 19 -9 40 -25 55 l-24 25 -1191 0
-1191 0 -24 -25z"/>
<path d="M2665 2855 c-16 -15 -25 -36 -25 -55 0 -19 9 -40 25 -55 l24 -25 591
0 591 0 24 25 c16 15 25 36 25 55 0 19 -9 40 -25 55 l-24 25 -591 0 -591 0
-24 -25z"/>
<path d="M825 1415 c-25 -24 -25 -26 -25 -215 0 -257 -17 -240 240 -240 257 0
240 -17 240 240 0 257 17 240 -240 240 -189 0 -191 0 -215 -25z m295 -215 l0
-80 -80 0 -80 0 0 80 0 80 80 0 80 0 0 -80z"/>
<path d="M3385 1655 c-22 -21 -25 -33 -25 -90 0 -52 -3 -65 -16 -65 -27 0
-119 -101 -132 -146 -28 -94 -8 -169 63 -239 51 -52 102 -75 164 -75 71 0 106
-85 56 -135 -23 -24 -31 -25 -135 -25 -104 0 -112 -1 -135 -25 -16 -15 -25
-36 -25 -55 0 -51 38 -80 105 -80 l55 0 0 -55 c0 -46 4 -60 25 -80 32 -33 78
-33 110 0 22 21 25 33 25 90 0 52 3 65 16 65 27 0 119 101 132 146 28 94 8
169 -63 239 -51 52 -102 75 -164 75 -42 0 -81 38 -81 80 0 19 9 40 25 55 23
24 31 25 135 25 104 0 112 1 135 25 16 15 25 36 25 55 0 51 -38 80 -105 80
l-55 0 0 55 c0 67 -29 105 -80 105 -19 0 -40 -9 -55 -25z"/>
</g>
</svg>
