<?xml version="1.0" standalone="no"?>
<!DOCTYPE svg PUBLIC "-//W3C//DTD SVG 20010904//EN"
 "http://www.w3.org/TR/2001/REC-SVG-20010904/DTD/svg10.dtd">
<svg version="1.0" xmlns="http://www.w3.org/2000/svg"
 width="512.000000pt" height="512.000000pt" viewBox="0 0 512.000000 512.000000"
 preserveAspectRatio="xMidYMid meet">

<g transform="translate(0.000000,512.000000) scale(0.100000,-0.100000)"
fill="#000000" stroke="none">
<path d="M1346 5029 c-62 -15 -153 -68 -197 -116 -22 -24 -55 -74 -72 -111
l-32 -67 -3 -527 c-3 -475 -4 -528 -19 -528 -76 0 -188 -88 -211 -166 -17 -59
-17 -1209 0 -1268 23 -78 135 -166 211 -166 15 0 17 -77 19 -848 l3 -848 37
-76 c45 -91 103 -147 196 -191 l67 -32 1215 0 1215 0 67 32 c93 44 151 100
196 191 l37 76 3 848 c2 808 3 848 20 848 10 0 39 7 65 16 57 19 128 93 145
152 17 56 17 1208 0 1264 -17 59 -88 133 -145 152 -26 9 -55 16 -64 16 -17 0
-18 29 -21 528 l-3 527 -32 67 c-44 93 -100 151 -191 196 l-76 37 -1195 2
c-701 1 -1212 -3 -1235 -8z m2408 -161 c55 -16 138 -99 154 -154 9 -30 12
-177 12 -538 l0 -496 -1360 0 -1360 0 0 496 c0 361 3 508 12 538 15 51 99 137
148 153 53 17 2338 17 2394 1z m381 -1373 l25 -24 0 -591 0 -591 -25 -24 -24
-25 -1551 0 -1551 0 -24 25 -25 24 0 591 0 591 25 24 24 25 1551 0 1551 0 24
-25z m-215 -1935 l0 -520 -1360 0 -1360 0 0 520 0 520 1360 0 1360 0 0 -520z
m0 -896 c0 -141 -4 -231 -12 -258 -16 -55 -99 -138 -154 -154 -60 -17 -2328
-17 -2388 0 -55 16 -138 99 -154 154 -8 27 -12 117 -12 258 l0 216 1360 0
1360 0 0 -216z"/>
<path d="M2185 4695 c-16 -15 -25 -36 -25 -55 0 -19 9 -40 25 -55 l24 -25 351
0 351 0 24 25 c16 15 25 36 25 55 0 19 -9 40 -25 55 l-24 25 -351 0 -351 0
-24 -25z"/>
<path d="M3145 4695 c-16 -15 -25 -36 -25 -55 0 -19 9 -40 25 -55 15 -16 36
-25 55 -25 19 0 40 9 55 25 16 15 25 36 25 55 0 19 -9 40 -25 55 -15 16 -36
25 -55 25 -19 0 -40 -9 -55 -25z"/>
<path d="M1385 3336 l-25 -25 0 -431 0 -431 25 -24 c15 -16 36 -25 55 -25 19
0 40 9 55 25 24 23 25 30 25 149 l0 124 198 4 c192 3 198 4 253 31 67 32 132
99 162 165 30 67 30 199 0 264 -30 66 -96 133 -162 165 l-56 28 -252 3 -253 3
-25 -25z m508 -150 c106 -44 138 -178 64 -263 -50 -57 -75 -63 -267 -63 l-170
0 0 170 0 170 170 0 c121 0 180 -4 203 -14z"/>
<path d="M2512 3343 c-13 -11 -85 -179 -183 -423 -89 -223 -164 -413 -166
-423 -9 -29 17 -74 49 -88 24 -10 35 -9 62 3 27 14 38 29 66 102 l33 86 187 0
187 0 33 -86 c28 -73 39 -88 66 -102 27 -12 38 -13 62 -3 32 14 58 59 49 88
-2 10 -77 200 -166 423 -98 244 -170 412 -183 423 -11 9 -33 17 -48 17 -15 0
-37 -8 -48 -17z m107 -425 c29 -73 55 -139 58 -145 4 -10 -23 -13 -117 -13
-94 0 -121 3 -117 13 3 6 29 72 58 145 29 72 55 132 59 132 4 0 30 -60 59
-132z"/>
<path d="M2985 3335 c-48 -47 -39 -65 135 -283 l160 -200 0 -201 c0 -201 0
-202 25 -226 32 -33 78 -33 110 0 25 24 25 25 25 226 l0 201 160 200 c174 218
183 236 135 283 -34 35 -79 33 -113 -4 -15 -15 -79 -94 -142 -174 -63 -80
-117 -146 -120 -146 -3 0 -57 66 -120 146 -63 80 -127 159 -142 174 -34 37
-79 39 -113 4z"/>
<path d="M2480 787 c-49 -16 -133 -102 -148 -153 -28 -94 -8 -169 63 -239 101
-102 229 -102 330 0 52 51 75 102 75 165 0 63 -23 114 -75 165 -70 71 -152 91
-245 62z m135 -172 c50 -49 15 -135 -55 -135 -19 0 -40 9 -55 25 -50 49 -15
135 55 135 19 0 40 -9 55 -25z"/>
<path d="M1545 615 c-16 -15 -25 -36 -25 -55 0 -19 9 -40 25 -55 24 -25 26
-25 215 -25 189 0 191 0 215 25 16 15 25 36 25 55 0 19 -9 40 -25 55 -24 25
-26 25 -215 25 -189 0 -191 0 -215 -25z"/>
<path d="M3145 615 c-16 -15 -25 -36 -25 -55 0 -19 9 -40 25 -55 24 -25 26
-25 215 -25 189 0 191 0 215 25 16 15 25 36 25 55 0 19 -9 40 -25 55 -24 25
-26 25 -215 25 -189 0 -191 0 -215 -25z"/>
</g>
</svg>
